<?xml version="1.0" standalone="no"?>
<!DOCTYPE svg PUBLIC "-//W3C//DTD SVG 20010904//EN"
 "http://www.w3.org/TR/2001/REC-SVG-20010904/DTD/svg10.dtd">
<svg version="1.0" xmlns="http://www.w3.org/2000/svg"
 width="174.000000pt" height="47.000000pt" viewBox="0 0 174.000000 47.000000"
 preserveAspectRatio="xMidYMid meet">
<metadata>
Created by potrace 1.10, written by Peter Selinger 2001-2011
</metadata>
<g transform="translate(0.000000,47.000000) scale(0.100000,-0.100000)"
fill="#000000" stroke="none">
<path d="M23 418 c-23 -11 -23 -14 -23 -189 l0 -179 27 -6 c42 -11 65 11 78
71 l7 30 15 -30 c34 -67 88 -96 121 -63 9 9 17 8 37 -2 31 -17 168 -18 187 -2
11 8 24 8 53 -3 76 -27 140 -12 187 43 l26 31 39 -38 c70 -70 160 -68 230 4
l42 44 6 -29 c4 -17 18 -39 32 -50 23 -18 29 -19 47 -7 12 8 27 27 35 43 10
20 16 24 19 14 9 -29 46 -60 72 -60 26 0 56 25 78 65 9 16 11 17 12 4 0 -26
40 -69 63 -69 11 0 31 10 44 22 l23 21 24 -22 c20 -19 35 -22 105 -23 72 -1
85 2 106 22 14 13 25 27 25 31 0 18 -46 49 -82 56 -44 9 -55 26 -19 31 39 6
71 32 71 57 0 27 -42 65 -74 66 -12 1 -3 6 20 12 51 15 74 33 74 59 0 34 -29
52 -91 56 -84 6 -128 -4 -141 -33 l-11 -24 -34 29 c-27 24 -40 29 -61 24 -40
-10 -61 -32 -92 -101 -16 -35 -31 -63 -35 -63 -3 0 -19 28 -34 63 -43 95 -86
123 -141 90 -16 -9 -30 -22 -30 -27 0 -5 -13 3 -29 18 -31 30 -56 30 -84 -2
-12 -13 -16 -42 -18 -117 -1 -108 -9 -135 -39 -135 -31 0 -40 32 -40 139 0 96
-1 100 -26 120 -34 27 -40 26 -69 -4 -22 -21 -25 -33 -25 -100 0 -41 -4 -75
-8 -75 -5 0 -19 11 -32 25 -13 14 -29 25 -37 25 -25 0 -12 15 27 32 51 21 54
54 9 92 -38 32 -98 35 -152 6 l-38 -21 -26 21 c-20 15 -41 20 -90 20 -73 0
-120 -21 -129 -57 -6 -22 -6 -22 -31 7 -38 45 -144 65 -200 38z m636 -29 c24
-8 31 -17 31 -36 0 -20 -3 -24 -17 -17 -39 16 -89 16 -103 -1 -19 -23 -5 -43
61 -81 40 -23 57 -41 65 -65 23 -68 -20 -120 -98 -121 -57 -1 -86 9 -93 32
-10 32 3 42 35 25 37 -19 84 -19 100 -1 24 29 7 59 -50 91 -64 36 -87 72 -73
119 6 21 20 37 43 48 41 21 56 22 99 7z m161 -122 c4 -112 7 -130 24 -143 28
-20 73 -17 96 6 18 18 20 33 20 139 0 99 3 120 16 125 9 3 20 4 25 0 15 -9 11
-241 -5 -272 -19 -36 -55 -55 -106 -55 -51 0 -87 19 -106 55 -15 28 -21 258
-7 272 4 4 14 5 23 4 12 -3 16 -26 20 -131z m-647 112 c52 -24 60 -87 18 -129
-24 -25 -27 -31 -15 -41 14 -11 45 -74 59 -118 5 -18 2 -21 -23 -21 -25 0 -30
5 -40 38 -20 63 -49 102 -77 102 -24 0 -25 -2 -25 -70 0 -68 -1 -70 -25 -70
l-25 0 0 160 0 160 65 0 c35 0 75 -5 88 -11z m297 -9 c0 -18 -7 -20 -65 -20
l-65 0 0 -45 0 -45 55 0 c48 0 55 -2 55 -20 0 -18 -7 -20 -55 -20 l-55 0 0
-55 0 -55 65 0 c58 0 65 -2 65 -20 0 -19 -7 -20 -90 -20 l-90 0 0 160 0 160
90 0 c83 0 90 -1 90 -20z m697 8 c6 -7 27 -58 48 -113 21 -55 41 -103 45 -107
3 -4 28 45 55 110 l50 117 38 3 37 3 0 -160 0 -161 -25 0 -25 0 0 133 -1 132
-52 -133 c-48 -123 -54 -133 -76 -130 -21 3 -30 19 -71 125 -25 68 -49 125
-52 128 -3 4 -3 -53 0 -124 l5 -131 -27 0 -26 0 0 160 0 160 34 0 c18 0 38 -6
43 -12z m533 -8 c0 -18 -7 -20 -65 -20 l-65 0 0 -45 0 -45 55 0 c48 0 55 -2
55 -20 0 -18 -7 -20 -55 -20 l-55 0 0 -55 0 -55 65 0 c58 0 65 -2 65 -20 0
-19 -7 -20 -90 -20 l-90 0 0 160 0 160 90 0 c83 0 90 -1 90 -20z m-1222 -79
c4 -22 3 -23 -19 -7 -13 9 -33 16 -44 17 -17 1 -16 2 5 9 38 12 55 7 58 -19z
m-229 -78 c0 -41 -2 -45 -11 -26 -10 20 -4 73 7 73 3 0 5 -21 4 -47z m351 -54
c0 -5 -21 -6 -46 -3 -27 3 -51 1 -59 -6 -17 -14 -117 -2 -112 14 2 6 20 15 41
19 21 5 44 19 52 33 l16 23 54 -36 c30 -20 54 -40 54 -44z"/>
<path d="M70 300 c0 -47 2 -50 26 -50 41 0 64 18 64 48 0 37 -17 52 -57 52
-33 0 -33 0 -33 -50z"/>
</g>
</svg>
