<?xml version="1.0" standalone="no"?>
<!DOCTYPE svg PUBLIC "-//W3C//DTD SVG 20010904//EN"
 "http://www.w3.org/TR/2001/REC-SVG-20010904/DTD/svg10.dtd">
<svg version="1.0" xmlns="http://www.w3.org/2000/svg"
 width="174.000000pt" height="47.000000pt" viewBox="0 0 174.000000 47.000000"
 preserveAspectRatio="xMidYMid meet">
<metadata>
Created by potrace 1.10, written by Peter Selinger 2001-2011
</metadata>
<g transform="translate(0.000000,47.000000) scale(0.100000,-0.100000)"
fill="#36fa00" stroke="none">
<path d="M0 235 l0 -235 870 0 870 0 0 235 0 235 -870 0 -870 0 0 -235z m678
141 c22 -21 8 -50 -17 -36 -28 15 -77 12 -90 -4 -19 -23 2 -51 62 -83 40 -22
55 -36 63 -63 23 -69 -19 -121 -98 -122 -57 -1 -86 9 -93 32 -10 32 3 42 35
25 57 -29 115 -10 108 35 -2 18 -19 33 -58 55 -64 36 -87 72 -73 119 16 58
119 85 161 42z m-505 3 c48 -22 60 -83 24 -124 l-23 -27 27 -56 c43 -92 45
-102 14 -102 -22 0 -30 9 -54 64 -27 59 -44 76 -77 76 -11 0 -14 -16 -14 -70
0 -68 -1 -70 -25 -70 l-25 0 0 160 0 160 65 0 c35 0 75 -5 88 -11z m297 -9 c0
-18 -7 -20 -65 -20 l-65 0 0 -45 0 -45 55 0 c48 0 55 -2 55 -20 0 -18 -7 -20
-55 -20 l-55 0 0 -55 0 -55 65 0 c58 0 65 -2 65 -20 0 -19 -7 -20 -90 -20
l-90 0 0 160 0 160 90 0 c83 0 90 -1 90 -20z m350 -97 c0 -106 2 -119 22 -140
27 -29 71 -30 98 -3 18 18 20 33 20 140 l0 120 25 0 25 0 0 -120 c0 -131 -10
-166 -52 -188 -53 -27 -120 -19 -157 19 l-31 31 0 129 0 129 25 0 25 0 0 -117z
m347 105 c5 -7 29 -62 53 -121 23 -59 44 -107 45 -105 2 2 22 50 46 108 23 58
47 111 52 118 5 6 25 12 43 12 l34 0 0 -160 0 -160 -25 0 -25 0 0 128 -1 127
-52 -128 c-48 -117 -54 -127 -76 -125 -21 3 -31 19 -72 123 l-48 120 0 -122
-1 -123 -25 0 -25 0 0 160 0 160 34 0 c18 0 38 -6 43 -12z m533 -8 c0 -18 -7
-20 -65 -20 l-65 0 0 -45 0 -45 55 0 c48 0 55 -2 55 -20 0 -18 -7 -20 -55 -20
l-55 0 0 -55 0 -55 65 0 c58 0 65 -2 65 -20 0 -19 -7 -20 -90 -20 l-90 0 0
160 0 160 90 0 c83 0 90 -1 90 -20z"/>
<path d="M70 300 c0 -55 10 -61 64 -40 20 7 26 17 26 39 0 34 -22 51 -64 51
-24 0 -26 -3 -26 -50z"/>
</g>
</svg>
